M48
;GenerationSoftware,Autodesk,EAGLE,9.6.2*%
;CreationDate,2020-07-27T21:52:53Z*%
FMAT,2
ICI,OFF
METRIC,TZ,000.000
T4C0.813
T3C0.900
T2C1.000
T1C1.016
%
G90
M71
T1
X22860Y2540
X22860Y5080
X22860Y7620
X22860Y10160
X22860Y12700
X22860Y15240
X22860Y17780
X22860Y20320
X22860Y22860
X22860Y25400
X22860Y27940
X22860Y30480
X22860Y33020
X22860Y35560
X22860Y38100
X22860Y40640
X22860Y43180
X22860Y45720
X22860Y48260
X22860Y50800
X45720Y2540
X45720Y5080
X45720Y7620
X45720Y10160
X45720Y12700
X45720Y15240
X45720Y17780
X45720Y20320
X45720Y22860
X45720Y25400
X45720Y27940
X45720Y30480
X45720Y33020
X45720Y35560
X45720Y38100
X45720Y40640
X45720Y43180
X45720Y45720
X45720Y48260
X45720Y50800
X10160Y20320
X7620Y20320
X5080Y20320
X10160Y25400
X7620Y25400
X5080Y25400
X10160Y30480
X7620Y30480
X5080Y30480
X10160Y35560
X7620Y35560
X5080Y35560
X10160Y40640
X7620Y40640
X5080Y40640
X10160Y45720
X7620Y45720
X5080Y45720
X10160Y50800
X7620Y50800
X5080Y50800
X58420Y45720
X60960Y45720
X63500Y45720
X58420Y40640
X60960Y40640
X63500Y40640
X58420Y35560
X60960Y35560
X63500Y35560
X60960Y30480
X63500Y30480
X58420Y25400
X60960Y25400
X63500Y25400
X58420Y20320
X60960Y20320
X63500Y20320
X58420Y15240
X60960Y15240
X63500Y15240
X10160Y15240
X7620Y15240
X5080Y15240
X12649Y2565
X6147Y2565
X12649Y7087
X6147Y7087
X58420Y30480
X58420Y50800
X60960Y50800
X63500Y50800
T2
X60960Y10160
X50800Y10160
T3
X48260Y38100
X20320Y38100
X20320Y27940
X20320Y33020
X20320Y40640
X20320Y45720
X20320Y43180
X20320Y50800
X20320Y48260
X48260Y48260
X48260Y50800
X20320Y15240
X48260Y43180
X20320Y35560
X48260Y45720
X48260Y40640
X48260Y33020
X48260Y35560
X48260Y27940
X48260Y30480
X48260Y22860
X48260Y25400
X48260Y17780
X48260Y20320
X48260Y12700
X20320Y17780
X20320Y20320
X20320Y25400
X20320Y22860
X20320Y30480
X17780Y5080
X20320Y5080
X20320Y12700
X48260Y15240
T4
X55880Y25400
X50800Y25400
X53340Y25400
X55880Y20320
X50800Y20320
X53340Y20320
X17780Y35560
X50800Y15240
X53340Y15240
X12700Y50800
X17780Y50800
X15240Y50800
X55880Y30480
X53340Y35560
X50800Y30480
X53340Y30480
X55880Y15240
X12700Y45720
X17780Y45720
X15240Y45720
X12700Y40640
X17780Y40640
X15240Y40640
X12700Y35560
X15240Y35560
X12700Y30480
X17780Y30480
X15240Y30480
X12700Y25400
X17780Y25400
X15240Y25400
X12700Y20320
X17780Y20320
X15240Y20320
X12700Y15240
X17780Y15240
X15240Y15240
X53340Y45720
X55880Y35560
X50800Y35560
X55880Y40640
X50800Y40640
X53340Y40640
X55880Y45720
X50800Y45720
X55880Y50800
X50800Y50800
X53340Y50800
M30