G04 EAGLE Gerber RS-274X export*
G75*
%MOMM*%
%FSLAX34Y34*%
%LPD*%
%INSoldermask Bottom*%
%IPPOS*%
%AMOC8*
5,1,8,0,0,1.08239X$1,22.5*%
G01*
%ADD10R,2.082800X2.082800*%
%ADD11C,2.082800*%
%ADD12C,1.524000*%
%ADD13C,1.727200*%
%ADD14C,2.184400*%


D10*
X228600Y25400D03*
D11*
X228600Y50800D03*
X228600Y76200D03*
X228600Y101600D03*
X228600Y127000D03*
X228600Y152400D03*
X228600Y177800D03*
X228600Y203200D03*
X228600Y228600D03*
X228600Y254000D03*
X228600Y279400D03*
X228600Y304800D03*
X228600Y330200D03*
X228600Y355600D03*
X228600Y381000D03*
X228600Y406400D03*
X228600Y431800D03*
X228600Y457200D03*
X228600Y482600D03*
X228600Y508000D03*
D10*
X457200Y25400D03*
D11*
X457200Y50800D03*
X457200Y76200D03*
X457200Y101600D03*
X457200Y127000D03*
X457200Y152400D03*
X457200Y177800D03*
X457200Y203200D03*
X457200Y228600D03*
X457200Y254000D03*
X457200Y279400D03*
X457200Y304800D03*
X457200Y330200D03*
X457200Y355600D03*
X457200Y381000D03*
X457200Y406400D03*
X457200Y431800D03*
X457200Y457200D03*
X457200Y482600D03*
X457200Y508000D03*
D12*
X558800Y311404D02*
X558800Y298196D01*
X508000Y298196D02*
X508000Y311404D01*
X533400Y311404D02*
X533400Y298196D01*
X127000Y450596D02*
X127000Y463804D01*
X177800Y463804D02*
X177800Y450596D01*
X152400Y450596D02*
X152400Y463804D01*
X127000Y413004D02*
X127000Y399796D01*
X177800Y399796D02*
X177800Y413004D01*
X152400Y413004D02*
X152400Y399796D01*
X127000Y362204D02*
X127000Y348996D01*
X177800Y348996D02*
X177800Y362204D01*
X152400Y362204D02*
X152400Y348996D01*
X127000Y311404D02*
X127000Y298196D01*
X177800Y298196D02*
X177800Y311404D01*
X152400Y311404D02*
X152400Y298196D01*
X127000Y260604D02*
X127000Y247396D01*
X177800Y247396D02*
X177800Y260604D01*
X152400Y260604D02*
X152400Y247396D01*
X127000Y209804D02*
X127000Y196596D01*
X177800Y196596D02*
X177800Y209804D01*
X152400Y209804D02*
X152400Y196596D01*
X127000Y159004D02*
X127000Y145796D01*
X177800Y145796D02*
X177800Y159004D01*
X152400Y159004D02*
X152400Y145796D01*
X558800Y348996D02*
X558800Y362204D01*
X508000Y362204D02*
X508000Y348996D01*
X533400Y348996D02*
X533400Y362204D01*
X558800Y399796D02*
X558800Y413004D01*
X508000Y413004D02*
X508000Y399796D01*
X533400Y399796D02*
X533400Y413004D01*
X558800Y450596D02*
X558800Y463804D01*
X508000Y463804D02*
X508000Y450596D01*
X533400Y450596D02*
X533400Y463804D01*
X558800Y501396D02*
X558800Y514604D01*
X508000Y514604D02*
X508000Y501396D01*
X533400Y501396D02*
X533400Y514604D01*
X558800Y260604D02*
X558800Y247396D01*
X508000Y247396D02*
X508000Y260604D01*
X533400Y260604D02*
X533400Y247396D01*
X558800Y209804D02*
X558800Y196596D01*
X508000Y196596D02*
X508000Y209804D01*
X533400Y209804D02*
X533400Y196596D01*
X558800Y159004D02*
X558800Y145796D01*
X508000Y145796D02*
X508000Y159004D01*
X533400Y159004D02*
X533400Y145796D01*
X127000Y501396D02*
X127000Y514604D01*
X177800Y514604D02*
X177800Y501396D01*
X152400Y501396D02*
X152400Y514604D01*
D11*
X203200Y127000D03*
X203200Y152400D03*
X482600Y431800D03*
X482600Y457200D03*
X482600Y381000D03*
X482600Y406400D03*
X482600Y330200D03*
X482600Y355600D03*
X482600Y279400D03*
X482600Y304800D03*
X482600Y228600D03*
X482600Y254000D03*
X482600Y177800D03*
X482600Y203200D03*
X482600Y152400D03*
X482600Y127000D03*
X203200Y177800D03*
X203200Y203200D03*
X203200Y254000D03*
X203200Y228600D03*
X203200Y304800D03*
X203200Y279400D03*
X203200Y355600D03*
X203200Y330200D03*
X203200Y406400D03*
X203200Y381000D03*
X203200Y457200D03*
X203200Y431800D03*
X203200Y508000D03*
X203200Y482600D03*
X482600Y482600D03*
X482600Y508000D03*
D13*
X584200Y500380D02*
X584200Y515620D01*
X609600Y515620D02*
X609600Y500380D01*
X635000Y500380D02*
X635000Y515620D01*
X101600Y210820D02*
X101600Y195580D01*
X76200Y195580D02*
X76200Y210820D01*
X50800Y210820D02*
X50800Y195580D01*
X101600Y246380D02*
X101600Y261620D01*
X76200Y261620D02*
X76200Y246380D01*
X50800Y246380D02*
X50800Y261620D01*
X101600Y297180D02*
X101600Y312420D01*
X76200Y312420D02*
X76200Y297180D01*
X50800Y297180D02*
X50800Y312420D01*
X101600Y347980D02*
X101600Y363220D01*
X76200Y363220D02*
X76200Y347980D01*
X50800Y347980D02*
X50800Y363220D01*
X101600Y398780D02*
X101600Y414020D01*
X76200Y414020D02*
X76200Y398780D01*
X50800Y398780D02*
X50800Y414020D01*
X101600Y449580D02*
X101600Y464820D01*
X76200Y464820D02*
X76200Y449580D01*
X50800Y449580D02*
X50800Y464820D01*
X101600Y500380D02*
X101600Y515620D01*
X76200Y515620D02*
X76200Y500380D01*
X50800Y500380D02*
X50800Y515620D01*
X584200Y464820D02*
X584200Y449580D01*
X609600Y449580D02*
X609600Y464820D01*
X635000Y464820D02*
X635000Y449580D01*
X584200Y414020D02*
X584200Y398780D01*
X609600Y398780D02*
X609600Y414020D01*
X635000Y414020D02*
X635000Y398780D01*
X584200Y363220D02*
X584200Y347980D01*
X609600Y347980D02*
X609600Y363220D01*
X635000Y363220D02*
X635000Y347980D01*
X584200Y312420D02*
X584200Y297180D01*
X609600Y297180D02*
X609600Y312420D01*
X635000Y312420D02*
X635000Y297180D01*
X584200Y261620D02*
X584200Y246380D01*
X609600Y246380D02*
X609600Y261620D01*
X635000Y261620D02*
X635000Y246380D01*
X584200Y210820D02*
X584200Y195580D01*
X609600Y195580D02*
X609600Y210820D01*
X635000Y210820D02*
X635000Y195580D01*
X584200Y160020D02*
X584200Y144780D01*
X609600Y144780D02*
X609600Y160020D01*
X635000Y160020D02*
X635000Y144780D01*
X101600Y144780D02*
X101600Y160020D01*
X76200Y160020D02*
X76200Y144780D01*
X50800Y144780D02*
X50800Y160020D01*
D11*
X126492Y25654D03*
X61468Y25654D03*
X126492Y70866D03*
X61468Y70866D03*
X177800Y50800D03*
X203200Y50800D03*
D14*
X508000Y101600D03*
X609600Y101600D03*
M02*
