M48
;GenerationSoftware,Autodesk,EAGLE,9.6.2*%
;CreationDate,2020-07-09T17:24:39Z*%
FMAT,2
ICI,OFF
INCH,TZ,000.000
T3C0.032
T2C0.035
T1C0.040
%
G90
M72
T1
X900Y100
X900Y200
X900Y300
X900Y400
X900Y500
X900Y600
X900Y700
X900Y800
X900Y900
X900Y1000
X900Y1100
X900Y1200
X900Y1300
X900Y1400
X900Y1500
X900Y1600
X900Y1700
X900Y1800
X900Y1900
X900Y2000
X1800Y100
X1800Y200
X1800Y300
X1800Y400
X1800Y500
X1800Y600
X1800Y700
X1800Y800
X1800Y900
X1800Y1000
X1800Y1100
X1800Y1200
X1800Y1300
X1800Y1400
X1800Y1500
X1800Y1600
X1800Y1700
X1800Y1800
X1800Y1900
X1800Y2000
X200Y800
X400Y1000
X300Y1000
X200Y1000
X400Y1200
X300Y1200
X200Y1200
X400Y1400
X300Y1400
X200Y1400
X400Y1600
X300Y1600
X200Y1600
X400Y1800
X300Y1800
X200Y1800
X400Y2000
X300Y2000
X200Y2000
X2300Y1800
X2400Y1800
X2500Y1800
X2300Y1600
X2400Y1600
X2500Y1600
X2400Y1400
X2500Y1400
X2300Y1200
X2400Y1200
X2500Y1200
X2300Y1000
X2400Y1000
X2500Y1000
X2300Y800
X2400Y800
X2500Y800
X2300Y600
X2400Y600
X2500Y600
X400Y600
X300Y600
X200Y600
X498Y101
X242Y101
X498Y279
X242Y279
X2300Y1400
X2300Y2000
X2400Y2000
X2500Y2000
X400Y800
X300Y800
T2
X800Y1100
X1900Y1300
X800Y900
X800Y800
X800Y1000
X800Y1200
X800Y1400
X800Y1300
X800Y1600
X800Y1500
X800Y1800
X800Y1700
X800Y2000
X800Y1900
X1900Y1900
X1900Y2000
X800Y500
X800Y600
X1900Y1700
X1900Y1800
X1900Y1500
X1900Y1600
X1900Y1400
X1900Y1100
X1900Y1200
X1900Y900
X1900Y1000
X1900Y700
X1900Y800
X1900Y600
X1900Y500
X800Y700
T3
X2100Y1800
X2200Y2000
X2000Y2000
X2100Y2000
X2200Y1000
X2000Y1000
X2100Y1000
X2200Y800
X700Y1400
X2100Y800
X2200Y600
X2000Y600
X2100Y600
X500Y2000
X2200Y1200
X2000Y1200
X700Y2000
X2100Y1200
X2000Y800
X500Y1800
X700Y1800
X600Y1800
X500Y1600
X700Y1600
X600Y1600
X500Y1400
X2000Y1400
X600Y1400
X500Y1200
X700Y1200
X600Y2000
X600Y1200
X500Y1000
X700Y1000
X600Y1000
X500Y800
X700Y800
X2200Y1800
X600Y800
X500Y600
X700Y600
X600Y600
X2200Y1400
X2100Y1400
X2200Y1600
X2000Y1600
X2100Y1600
X2000Y1800
M30