G04 EAGLE Gerber RS-274X export*
G75*
%MOIN*%
%FSLAX34Y34*%
%LPD*%
%INBottom Copper*%
%IPPOS*%
%AMOC8*
5,1,8,0,0,1.08239X$1,22.5*%
G01*
%ADD10R,0.074000X0.074000*%
%ADD11C,0.074000*%
%ADD12C,0.052000*%
%ADD13C,0.060000*%
%ADD14C,0.020000*%
%ADD15C,0.010000*%


D10*
X9000Y1000D03*
D11*
X9000Y2000D03*
X9000Y3000D03*
X9000Y4000D03*
X9000Y5000D03*
X9000Y6000D03*
X9000Y7000D03*
X9000Y8000D03*
X9000Y9000D03*
X9000Y10000D03*
X9000Y11000D03*
X9000Y12000D03*
X9000Y13000D03*
X9000Y14000D03*
X9000Y15000D03*
X9000Y16000D03*
X9000Y17000D03*
X9000Y18000D03*
X9000Y19000D03*
X9000Y20000D03*
D10*
X18000Y1000D03*
D11*
X18000Y2000D03*
X18000Y3000D03*
X18000Y4000D03*
X18000Y5000D03*
X18000Y6000D03*
X18000Y7000D03*
X18000Y8000D03*
X18000Y9000D03*
X18000Y10000D03*
X18000Y11000D03*
X18000Y12000D03*
X18000Y13000D03*
X18000Y14000D03*
X18000Y15000D03*
X18000Y16000D03*
X18000Y17000D03*
X18000Y18000D03*
X18000Y19000D03*
X18000Y20000D03*
D12*
X22000Y12260D02*
X22000Y11740D01*
X20000Y11740D02*
X20000Y12260D01*
X21000Y12260D02*
X21000Y11740D01*
X5000Y17740D02*
X5000Y18260D01*
X7000Y18260D02*
X7000Y17740D01*
X6000Y17740D02*
X6000Y18260D01*
X5000Y16260D02*
X5000Y15740D01*
X7000Y15740D02*
X7000Y16260D01*
X6000Y16260D02*
X6000Y15740D01*
X5000Y14260D02*
X5000Y13740D01*
X7000Y13740D02*
X7000Y14260D01*
X6000Y14260D02*
X6000Y13740D01*
X5000Y12260D02*
X5000Y11740D01*
X7000Y11740D02*
X7000Y12260D01*
X6000Y12260D02*
X6000Y11740D01*
X5000Y10260D02*
X5000Y9740D01*
X7000Y9740D02*
X7000Y10260D01*
X6000Y10260D02*
X6000Y9740D01*
X5000Y8260D02*
X5000Y7740D01*
X7000Y7740D02*
X7000Y8260D01*
X6000Y8260D02*
X6000Y7740D01*
X5000Y6260D02*
X5000Y5740D01*
X7000Y5740D02*
X7000Y6260D01*
X6000Y6260D02*
X6000Y5740D01*
X22000Y13740D02*
X22000Y14260D01*
X20000Y14260D02*
X20000Y13740D01*
X21000Y13740D02*
X21000Y14260D01*
X22000Y15740D02*
X22000Y16260D01*
X20000Y16260D02*
X20000Y15740D01*
X21000Y15740D02*
X21000Y16260D01*
X22000Y17740D02*
X22000Y18260D01*
X20000Y18260D02*
X20000Y17740D01*
X21000Y17740D02*
X21000Y18260D01*
X22000Y19740D02*
X22000Y20260D01*
X20000Y20260D02*
X20000Y19740D01*
X21000Y19740D02*
X21000Y20260D01*
X22000Y10260D02*
X22000Y9740D01*
X20000Y9740D02*
X20000Y10260D01*
X21000Y10260D02*
X21000Y9740D01*
X22000Y8260D02*
X22000Y7740D01*
X20000Y7740D02*
X20000Y8260D01*
X21000Y8260D02*
X21000Y7740D01*
X22000Y6260D02*
X22000Y5740D01*
X20000Y5740D02*
X20000Y6260D01*
X21000Y6260D02*
X21000Y5740D01*
X5000Y19740D02*
X5000Y20260D01*
X7000Y20260D02*
X7000Y19740D01*
X6000Y19740D02*
X6000Y20260D01*
D11*
X8000Y5000D03*
X8000Y6000D03*
X19000Y17000D03*
X19000Y18000D03*
X19000Y15000D03*
X19000Y16000D03*
X19000Y13000D03*
X19000Y14000D03*
X19000Y11000D03*
X19000Y12000D03*
X19000Y9000D03*
X19000Y10000D03*
X19000Y7000D03*
X19000Y8000D03*
X19000Y6000D03*
X19000Y5000D03*
X8000Y7000D03*
X8000Y8000D03*
X8000Y10000D03*
X8000Y9000D03*
X8000Y12000D03*
X8000Y11000D03*
X8000Y14000D03*
X8000Y13000D03*
X8000Y16000D03*
X8000Y15000D03*
X8000Y18000D03*
X8000Y17000D03*
X8000Y20000D03*
X8000Y19000D03*
X19000Y19000D03*
X19000Y20000D03*
D13*
X23000Y19700D02*
X23000Y20300D01*
X24000Y20300D02*
X24000Y19700D01*
X25000Y19700D02*
X25000Y20300D01*
X4000Y8300D02*
X4000Y7700D01*
X3000Y7700D02*
X3000Y8300D01*
X2000Y8300D02*
X2000Y7700D01*
X4000Y9700D02*
X4000Y10300D01*
X3000Y10300D02*
X3000Y9700D01*
X2000Y9700D02*
X2000Y10300D01*
X4000Y11700D02*
X4000Y12300D01*
X3000Y12300D02*
X3000Y11700D01*
X2000Y11700D02*
X2000Y12300D01*
X4000Y13700D02*
X4000Y14300D01*
X3000Y14300D02*
X3000Y13700D01*
X2000Y13700D02*
X2000Y14300D01*
X4000Y15700D02*
X4000Y16300D01*
X3000Y16300D02*
X3000Y15700D01*
X2000Y15700D02*
X2000Y16300D01*
X4000Y17700D02*
X4000Y18300D01*
X3000Y18300D02*
X3000Y17700D01*
X2000Y17700D02*
X2000Y18300D01*
X4000Y19700D02*
X4000Y20300D01*
X3000Y20300D02*
X3000Y19700D01*
X2000Y19700D02*
X2000Y20300D01*
X23000Y18300D02*
X23000Y17700D01*
X24000Y17700D02*
X24000Y18300D01*
X25000Y18300D02*
X25000Y17700D01*
X23000Y16300D02*
X23000Y15700D01*
X24000Y15700D02*
X24000Y16300D01*
X25000Y16300D02*
X25000Y15700D01*
X23000Y14300D02*
X23000Y13700D01*
X24000Y13700D02*
X24000Y14300D01*
X25000Y14300D02*
X25000Y13700D01*
X23000Y12300D02*
X23000Y11700D01*
X24000Y11700D02*
X24000Y12300D01*
X25000Y12300D02*
X25000Y11700D01*
X23000Y10300D02*
X23000Y9700D01*
X24000Y9700D02*
X24000Y10300D01*
X25000Y10300D02*
X25000Y9700D01*
X23000Y8300D02*
X23000Y7700D01*
X24000Y7700D02*
X24000Y8300D01*
X25000Y8300D02*
X25000Y7700D01*
X23000Y6300D02*
X23000Y5700D01*
X24000Y5700D02*
X24000Y6300D01*
X25000Y6300D02*
X25000Y5700D01*
X4000Y5700D02*
X4000Y6300D01*
X3000Y6300D02*
X3000Y5700D01*
X2000Y5700D02*
X2000Y6300D01*
D11*
X4980Y1010D03*
X2420Y1010D03*
X4980Y2790D03*
X2420Y2790D03*
D14*
X19000Y20000D02*
X20000Y19000D01*
X21000Y19000D01*
X21000Y20000D01*
X21000Y6000D02*
X21000Y5000D01*
X19000Y5000D01*
X21000Y7000D02*
X21000Y8000D01*
X21000Y7000D02*
X20000Y7000D01*
X19000Y8000D01*
X21000Y9000D02*
X21000Y10000D01*
X21000Y9000D02*
X20000Y9000D01*
X19000Y10000D01*
X21000Y11000D02*
X21000Y12000D01*
X21000Y11000D02*
X20000Y11000D01*
X19000Y12000D01*
X21000Y13000D02*
X21000Y14000D01*
X21000Y13000D02*
X20000Y13000D01*
X19000Y14000D01*
X21000Y15000D02*
X21000Y16000D01*
X21000Y15000D02*
X20000Y15000D01*
X19000Y16000D01*
X21000Y17000D02*
X21000Y18000D01*
X21000Y17000D02*
X20000Y17000D01*
X19000Y18000D01*
X6000Y8000D02*
X6000Y7000D01*
X8000Y7000D01*
X6000Y6000D02*
X6000Y5000D01*
X8000Y5000D01*
X6000Y9000D02*
X6000Y10000D01*
X6000Y9000D02*
X7000Y9000D01*
X8000Y10000D01*
X7000Y11000D02*
X8000Y12000D01*
X6000Y12000D02*
X6000Y11000D01*
X7000Y11000D01*
X6000Y13000D02*
X6000Y14000D01*
X6000Y13000D02*
X7000Y13000D01*
X8000Y14000D01*
X6000Y15000D02*
X6000Y16000D01*
X6000Y15000D02*
X7000Y15000D01*
X8000Y16000D01*
X7000Y17000D02*
X8000Y18000D01*
X7000Y17000D02*
X6000Y17000D01*
X6000Y18000D01*
X7000Y19000D02*
X8000Y20000D01*
X7000Y19000D02*
X6000Y19000D01*
X6000Y20000D01*
X9000Y3000D02*
X18000Y3000D01*
D15*
X13460Y4460D02*
X18000Y9000D01*
X9219Y4460D02*
X9199Y4480D01*
X6670Y4480D01*
X5095Y2905D01*
X9219Y4460D02*
X13460Y4460D01*
M02*
